<svg width="45" height="45" viewBox="0 0 45 45" fill="none" xmlns="http://www.w3.org/2000/svg">
<path fill-rule="evenodd" clip-rule="evenodd" d="M22.1954 1.84106C10.7324 1.84106 1.43701 11.1343 1.43701 22.5994C1.43701 31.7714 7.38492 39.5522 15.6329 42.2973C16.6699 42.4898 17.0508 41.847 17.0508 41.2988C17.0508 40.8038 17.0316 39.1685 17.0226 37.434C11.2476 38.6897 10.029 34.9848 10.029 34.9848C9.08476 32.5854 7.7242 31.9474 7.7242 31.9474C5.84045 30.659 7.86617 30.6858 7.86617 30.6858C9.95033 30.8319 11.0483 32.825 11.0483 32.825C12.8997 35.9978 15.9044 35.0807 17.089 34.5506C17.2753 33.2089 17.8133 32.2928 18.4069 31.7745C13.7962 31.2503 8.94898 29.47 8.94898 21.5159C8.94898 19.2496 9.76023 17.3978 11.0881 15.9438C10.8723 15.4213 10.1617 13.3099 11.2889 10.4506C11.2889 10.4506 13.0317 9.89272 16.9986 12.5784C18.6548 12.1182 20.4309 11.8868 22.1954 11.8789C23.9588 11.8868 25.736 12.1175 27.3953 12.5778C31.3574 9.89203 33.0981 10.4499 33.0981 10.4499C34.228 13.3089 33.5175 15.4206 33.3019 15.9431C34.6329 17.3971 35.4384 19.2489 35.4384 21.5153C35.4384 29.4882 30.5822 31.2434 25.9598 31.7576C26.7047 32.4018 27.3681 33.6654 27.3681 35.6018C27.3681 38.3793 27.3441 40.6147 27.3441 41.2984C27.3441 41.8508 27.7181 42.4981 28.7699 42.2943C37.0131 39.5463 42.9541 31.7679 42.9541 22.5994C42.9538 11.135 33.6595 1.84141 22.1954 1.84141V1.84106Z" fill="white"/>
<path d="M9.29947 31.6452C9.25375 31.7483 9.0915 31.7793 8.94369 31.7088C8.79244 31.6414 8.70822 31.5008 8.75704 31.3974C8.80172 31.2908 8.96432 31.2616 9.11453 31.3327C9.26578 31.4005 9.35172 31.5424 9.29913 31.6456L9.29947 31.6452ZM10.1403 32.5833C10.0416 32.6751 9.8481 32.6325 9.71679 32.4871C9.58066 32.3427 9.55522 32.1492 9.65594 32.056C9.75838 31.9646 9.94607 32.0079 10.0822 32.1522C10.2176 32.2987 10.2444 32.4905 10.1406 32.5837L10.1403 32.5833ZM10.9591 33.7785C10.8319 33.8672 10.6236 33.7844 10.495 33.5998C10.3678 33.4148 10.3678 33.1931 10.4985 33.1048C10.6267 33.0161 10.8319 33.0962 10.9625 33.2791C11.089 33.4664 11.089 33.6881 10.9591 33.7782V33.7785ZM12.0801 34.9339C11.9666 35.0593 11.7239 35.0257 11.5466 34.8548C11.3654 34.6874 11.3149 34.4492 11.4287 34.3241C11.5442 34.1982 11.7879 34.2333 11.9663 34.4031C12.1474 34.5702 12.2021 34.8087 12.0808 34.9335L12.0801 34.9339ZM13.6269 35.6045C13.5764 35.7671 13.3433 35.841 13.1079 35.7716C12.8731 35.7004 12.7194 35.5103 12.7676 35.346C12.8157 35.1821 13.0505 35.1054 13.2873 35.1793C13.5221 35.2501 13.6758 35.4392 13.6269 35.6045ZM15.3261 35.7286C15.3319 35.8998 15.1326 36.0414 14.8861 36.0449C14.6376 36.0507 14.4365 35.9118 14.4341 35.7434C14.4341 35.5705 14.6293 35.4306 14.8775 35.4258C15.124 35.4213 15.3264 35.5588 15.3264 35.7283L15.3261 35.7286ZM16.9067 35.4598C16.9362 35.6265 16.7647 35.7981 16.5196 35.8438C16.279 35.8885 16.0555 35.7847 16.0246 35.6193C15.995 35.4481 16.1697 35.2766 16.4103 35.2322C16.6557 35.19 16.8757 35.2907 16.9067 35.4602V35.4598Z" fill="white"/>
</svg>
