<svg width="41" height="31" viewBox="0 0 41 31" fill="none" xmlns="http://www.w3.org/2000/svg">
<path d="M3.30409 30.7367H9.69657V15.2121L0.564453 8.36304V27.9971C0.564453 29.513 1.79272 30.7367 3.30409 30.7367Z" fill="#4285F4"/>
<path d="M31.6138 30.7367H38.0063C39.5222 30.7367 40.7459 29.5085 40.7459 27.9971V8.36304L31.6138 15.2121" fill="#34A853"/>
<path d="M31.6138 3.34067V15.2124L40.7459 8.36333V4.71049C40.7459 1.32247 36.8784 -0.608972 34.1708 1.42292" fill="#FBBC04"/>
<path d="M9.69678 15.2123V3.34058L20.6553 11.5595L31.6139 3.34058V15.2123L20.6553 23.4312" fill="#EA4335"/>
<path d="M0.564453 4.71049V8.36333L9.69657 15.2124V3.34067L7.13958 1.42292C4.42734 -0.608972 0.564453 1.32247 0.564453 4.71049Z" fill="#C5221F"/>
</svg>
