<svg width="37" height="37" viewBox="0 0 37 37" fill="none" xmlns="http://www.w3.org/2000/svg">
<path d="M5.5495 32.1145L2.7356 0.554077H33.6551L30.8381 32.1098L18.1765 35.6198L5.5495 32.1145Z" fill="#E44D26"/>
<path d="M18.1953 32.9369L28.4266 30.1002L30.8338 3.13452H18.1953V32.9369Z" fill="#F16529"/>
<path d="M18.1955 14.8399H13.0734L12.7195 10.8759H18.1955V7.00537H8.48926L8.58207 8.04375L9.53326 18.7107H18.1955V14.8399ZM18.1955 24.8926L18.1783 24.8974L13.8676 23.733L13.5923 20.6463H9.70623L10.2485 26.7238L18.1778 28.9249L18.1955 28.9201V24.8926Z" fill="#EBEBEB"/>
<path d="M18.1816 14.8399V18.7107H22.948L22.4988 23.7307L18.1816 24.896V28.9232L26.1171 26.7238L26.1753 26.0699L27.0849 15.8794L27.1791 14.8399H26.1362H18.1816ZM18.1816 7.00537V10.8759H27.5315L27.6091 10.0063L27.7858 8.04375L27.8783 7.00537H18.1816Z" fill="white"/>
</svg>
