<svg width="42" height="42" viewBox="0 0 42 42" fill="none" xmlns="http://www.w3.org/2000/svg">
<path d="M12.773 34.9913L12.682 34.8097C12.5004 34.4461 12.5004 34.0826 12.5913 33.6281H2.77665L17.3172 7.8192L23.4061 18.8155L25.4051 17.3613L19.3163 6.36498C19.2257 6.18336 18.4985 5.09302 17.3172 5.09302C16.7717 5.09302 15.954 5.27464 15.3178 6.45595L0.595642 32.5377C0.504673 32.8106 -0.131468 33.9919 0.413704 34.9913C0.777259 35.5368 1.32275 36.082 2.59503 36.082H14.9543C13.682 36.082 13.0459 35.5368 12.773 34.9916V34.9913Z" fill="#00C58E"/>
<path d="M40.7627 32.6275L28.9486 11.3623C28.767 11.1807 28.1308 9.99902 26.9492 9.99902C26.404 9.99902 25.5863 10.2716 24.9501 11.3623L23.4053 13.9068V18.8143L26.9495 12.7255L38.6727 33.6272H34.2197C34.2942 34.0599 34.2305 34.505 34.0377 34.8995L33.9468 34.9904C33.4016 35.9898 32.0383 36.0808 31.8567 36.0808H38.7633C39.0359 36.0808 40.3082 35.9901 40.9443 34.9904C41.2169 34.5359 41.3988 33.7182 40.7627 32.6275V32.6275Z" fill="#108775"/>
<path d="M34.3118 34.9914V34.9004L34.4028 34.7188C34.4934 34.3552 34.5844 33.9917 34.4934 33.6281L34.1302 32.5378L24.861 16.3617L23.4978 13.9081H23.4068L22.0435 16.3617L12.7743 32.5375L12.4111 33.6281C12.3231 34.0902 12.3868 34.5684 12.5927 34.9914C12.9563 35.5365 13.5014 36.082 14.7737 36.082H32.0405C32.3131 36.082 33.6763 35.9911 34.3125 34.9914H34.3118ZM23.4065 18.8153L31.8582 33.6281H14.955L23.4065 18.8153Z" fill="#2F495E"/>
</svg>
