<svg width="45" height="45" viewBox="0 0 45 45" fill="none" xmlns="http://www.w3.org/2000/svg">
<path fill-rule="evenodd" clip-rule="evenodd" d="M0.614258 19.3905C0.614258 19.6322 0.685414 19.7917 0.725289 19.9467C0.985164 20.9549 1.54376 21.8202 2.20651 22.6094C3.15045 23.7342 4.30648 24.6396 5.4907 25.4911C6.51782 26.2294 7.56591 26.9513 8.59716 27.6842C8.7742 27.81 8.9416 27.9547 9.13376 28.1091C8.96841 28.1984 8.83091 28.2772 8.68791 28.3497C7.32701 29.0399 6.01766 29.8137 4.81076 30.7511C4.08338 31.3163 3.38007 31.9168 2.88335 32.7016C2.08413 33.9638 1.80123 35.3086 2.39695 36.7444C2.57088 37.1638 2.83626 37.5261 3.2106 37.7939C3.33195 37.8805 3.46807 37.9664 3.61004 38.0001C3.97373 38.0857 4.34429 38.1418 4.71245 38.2095L5.75504 38.2088C6.90798 38.106 7.95745 37.711 8.90585 37.0565C10.3881 36.0335 11.3867 34.662 11.816 32.9016C12.1282 31.6222 12.1409 30.3414 11.7731 29.0678C11.7379 28.9498 11.6973 28.8335 11.6514 28.7192C11.6067 28.6048 11.5541 28.4934 11.4922 28.3507L13.8559 26.9915L13.8913 27.0218C13.8483 27.1624 13.8026 27.3026 13.7637 27.4446C13.4829 28.4704 13.2962 29.514 13.3633 30.5786C13.4348 31.7129 13.7514 32.7748 14.4155 33.7225C14.9524 34.4891 16.2319 34.5176 16.8025 33.7483C17.0049 33.475 17.2012 33.1894 17.3487 32.8844C17.734 32.0887 18.0909 31.2788 18.459 30.4744L18.5233 30.3273C18.4968 30.7082 18.4659 31.0426 18.4518 31.3774C18.4298 31.9003 18.4604 32.42 18.6391 32.9174C18.7921 33.343 19.0523 33.661 19.5398 33.717C19.8732 33.7552 20.1389 33.6025 20.384 33.409C20.7637 33.109 21.0784 32.7348 21.309 32.3094C21.9625 31.1093 22.6335 29.9165 23.2258 28.6862C23.8665 27.3556 24.4269 25.9861 25.0219 24.6327L25.1202 24.3928C25.2608 24.9452 25.3588 25.4863 25.5392 25.9984C25.7489 26.5928 26.0084 27.173 26.291 27.7371C26.4247 28.0035 26.4093 28.1764 26.224 28.3999C25.4485 29.3349 24.6864 30.2812 23.9236 31.2265C23.7548 31.4352 23.5867 31.6476 23.4461 31.8755C23.3608 32.0195 23.3048 32.1788 23.2811 32.3444C23.2575 32.4969 23.2938 32.6526 23.3824 32.7789C23.471 32.9052 23.6051 32.9923 23.7565 33.0219C24.0622 33.0878 24.3755 33.1101 24.6874 33.0883C25.752 33.0099 26.7186 32.6363 27.5732 32.0031C28.6804 31.1829 29.0359 30.0636 28.7677 28.7371C28.6952 28.3772 28.567 28.0273 28.4422 27.6804C28.3862 27.524 28.3824 27.4144 28.4845 27.2686C29.3696 26.0046 30.1259 24.6637 30.8292 23.2918C30.857 23.2378 30.8856 23.1838 30.9344 23.1261C31.1623 24.312 31.5054 25.455 32.12 26.4921C31.8065 26.7942 31.4961 27.0682 31.2152 27.37C30.5968 28.0348 30.0606 28.7567 29.7808 29.637C29.6604 30.0165 29.568 30.4022 29.6216 30.8075C29.7048 31.4369 30.2204 31.846 30.8395 31.7026C32.1643 31.396 33.308 30.7718 34.1436 29.6659C34.706 28.9214 34.7572 28.0909 34.5218 27.2208C34.4571 26.9843 34.3805 26.7516 34.298 26.4804C34.6249 26.379 34.9435 26.2573 35.2732 26.182C36.9847 25.7915 38.6777 25.8596 40.327 26.4776C41.2899 26.8386 42.0678 27.4425 42.5291 28.3927C43.0925 29.5542 42.781 30.6563 41.6862 31.3905C41.5841 31.4589 41.4672 31.5129 41.3827 31.5985C41.3556 31.6299 41.3353 31.6666 41.3232 31.7062C41.3111 31.7459 41.3073 31.7876 41.3122 31.8288C41.3194 31.8711 41.4311 31.924 41.4954 31.9233C41.8553 31.9206 42.1472 31.7319 42.4273 31.538C43.1293 31.0523 43.6414 30.3988 43.7518 29.5384L43.7734 29.4738L43.747 28.9134C43.7363 28.8811 43.7549 28.8492 43.7525 28.8248C43.6033 27.5718 42.934 26.6 41.9605 25.8383C40.833 24.9565 39.5017 24.5935 38.0937 24.5361C36.9517 24.487 35.8113 24.6625 34.7369 25.0528C34.4286 25.1645 34.123 25.2969 33.8129 25.4216C33.7713 25.3464 33.7267 25.2742 33.6899 25.1996C33.3716 24.5478 32.9859 23.9249 32.9006 23.1776C32.8401 22.6469 32.7659 22.1168 32.892 21.5919C33.0134 21.0869 33.1715 20.5906 33.3204 20.0925C33.397 19.836 33.343 19.6924 33.0983 19.5769C33.013 19.5343 32.922 19.5044 32.8281 19.4882C32.2265 19.4009 31.6332 19.4507 31.0506 19.6202C30.8443 19.6803 30.6944 19.7958 30.6487 20.0241C30.6226 20.155 30.5693 20.2805 30.5322 20.4098C30.3799 20.947 30.272 21.4946 30.0259 22.0065C29.4092 23.2904 28.7052 24.5258 27.9847 25.7523C27.9066 25.8847 27.8245 26.0146 27.7262 26.1751C27.4732 25.6458 27.2033 25.1707 27.1215 24.6138C27.029 23.9841 26.9562 23.3554 27.1129 22.7304C27.2294 22.2643 27.3817 21.8068 27.522 21.3468C27.5883 21.1282 27.5577 21.0134 27.3597 20.8982C27.2597 20.8401 27.1466 20.7886 27.0338 20.7717C26.417 20.6778 25.7868 20.7293 25.1934 20.9223C25.0068 20.9828 24.9088 21.1034 24.8517 21.2959C24.684 21.8638 24.541 22.4454 24.3055 22.9855C23.3519 25.1717 22.3709 27.3466 21.3909 29.5212C21.1863 29.9753 20.9467 30.4136 20.7161 30.8556C20.6576 30.9677 20.5724 31.0664 20.4995 31.1715C20.4411 31.1024 20.4184 31.055 20.4187 31.0076C20.4204 30.7281 20.3871 30.4404 20.4404 30.1702C20.604 29.353 20.7848 28.5394 20.9828 27.7299C21.1444 27.061 21.3324 26.3982 21.5115 25.7338C21.5717 25.5114 21.5727 25.3034 21.4129 25.1164C21.1444 24.8032 20.5834 24.7345 20.2506 24.9758L20.1035 25.059L20.132 24.8218C20.2022 24.3134 20.2163 23.8067 20.0767 23.3059C19.9028 22.6816 19.4573 22.3224 18.8096 22.3423C18.5078 22.3516 18.1909 22.4032 17.9114 22.5132C16.7361 22.9738 15.8324 23.7895 15.0631 24.7709C14.9918 24.862 14.9034 24.9384 14.8029 24.9957C13.8084 25.5471 12.8109 26.0916 11.8136 26.6382L10.7037 27.2463C10.406 26.9623 10.1354 26.6677 9.82848 26.4178C8.89107 25.6533 7.93854 24.9077 6.9946 24.1518C6.15791 23.4819 5.34735 22.784 4.72723 21.8968C4.26591 21.2368 3.96857 20.5146 3.94004 19.6985C3.90395 18.6587 4.19888 17.7086 4.72826 16.8241C5.40545 15.6925 6.3291 14.7843 7.34454 13.9617C8.41876 13.092 9.58063 12.3536 10.7848 11.6795C12.4695 10.7366 14.2024 9.90201 16.0603 9.35098C17.9654 8.78585 19.8983 8.46238 21.892 8.68788C22.6758 8.77657 23.4368 8.95601 24.1357 9.33929C24.6709 9.63251 25.1099 10.0165 25.3141 10.6167C25.5155 11.2072 25.5093 11.8057 25.3698 12.4055C25.0862 13.6204 24.421 14.6217 23.584 15.5165C22.211 16.9833 20.5363 17.9819 18.6508 18.6415C17.5667 19.0213 16.4388 19.2619 15.2941 19.3575C14.356 19.4363 13.4375 19.3531 12.5493 19.0269C11.9611 18.8106 11.4489 18.4799 11.0371 18.0001C10.9635 17.9141 10.8694 17.821 10.7322 17.9014C10.5978 17.9805 10.5741 18.1084 10.6191 18.2379C10.6944 18.4531 10.7638 18.6773 10.881 18.8698C11.1756 19.3527 11.6053 19.703 12.0783 20.0034C12.9869 20.5813 14.0023 20.7755 15.0552 20.8205C16.6529 20.8896 18.2119 20.6511 19.7488 20.2224C21.9429 19.6105 23.8507 18.5298 25.3808 16.8248C26.6547 15.4051 27.5646 13.8029 27.7595 11.8683C27.8547 10.924 27.7533 9.99895 27.3113 9.13751C26.8317 8.20423 26.0693 7.5102 25.1577 7.03204C23.8301 6.33595 22.3974 5.93066 20.9185 5.93066H19.437C17.646 5.93066 15.9146 6.44388 14.2316 7.0561C12.9576 7.51982 11.7084 8.06707 10.4957 8.67276C7.85466 9.99241 5.39513 11.5836 3.37491 13.7716C2.36841 14.8616 1.51626 16.0644 1.02607 17.4807C0.878122 17.9035 0.750672 18.3332 0.644164 18.7684M10.2138 31.1478C10.0994 32.6806 9.40463 33.9233 8.26923 34.9298C7.63054 35.4956 6.89801 35.8984 6.04482 36.0401C5.73545 36.0913 5.41885 36.1037 5.11876 35.9754C4.69079 35.7926 4.59488 35.4127 4.58663 35.0081C4.57391 34.3633 4.79976 33.7803 5.10948 33.2254C5.51373 32.5022 6.10635 31.9508 6.7392 31.4359C7.73607 30.6243 8.81751 29.9375 9.92507 29.2892L10.0086 29.2548C10.1798 29.8873 10.2613 30.5119 10.2138 31.1478V31.1478ZM18.8619 24.4863C18.7811 24.9758 18.68 25.4656 18.537 25.94C18.0427 27.5821 17.4078 29.1733 16.7214 30.7432C16.5945 31.0337 16.4099 31.2987 16.2494 31.5741C16.2221 31.6164 16.1894 31.655 16.1521 31.6889C15.9534 31.8852 15.765 31.8749 15.6647 31.6181C15.5478 31.3197 15.4759 31.0004 15.4141 30.6844C15.3725 30.4724 15.3824 30.2496 15.3694 30.0324C15.3828 28.4875 15.8541 27.0837 16.6536 25.7767C16.9833 25.2377 17.3422 24.7242 17.8904 24.3832C18.061 24.2771 18.2456 24.1954 18.4387 24.1405C18.7309 24.0583 18.9104 24.1934 18.8619 24.4863V24.4863ZM24.762 32.0034L26.8826 29.5274C26.9709 30.4469 25.4079 32.2825 24.762 32.0034ZM31.5349 30.3373C31.385 30.4232 31.2218 30.4851 31.0681 30.5645C30.9275 30.6374 30.8811 30.5638 30.877 30.4428C30.8749 30.359 30.8857 30.2754 30.9089 30.1949C31.1953 29.185 31.7223 28.3229 32.5064 27.6216L32.5614 27.5934C32.9343 28.6367 32.5033 29.7824 31.5349 30.3373Z" fill="#CB6699"/>
</svg>
