<svg width="45" height="45" viewBox="0 0 45 45" fill="none" xmlns="http://www.w3.org/2000/svg">
<path d="M22.1968 8.88757C16.33 8.88757 12.6646 11.8198 11.1968 17.6865C13.3961 14.754 15.9636 13.6544 18.8961 14.3876C20.5705 14.8049 21.7671 16.019 23.0922 17.3644C25.2489 19.5531 27.7452 22.0869 33.1968 22.0869C39.0632 22.0869 42.729 19.1544 44.1968 13.2862C41.9971 16.2204 39.43 17.3201 36.4971 16.5869C34.8231 16.1692 33.6278 14.9554 32.301 13.61C30.1457 11.4214 27.65 8.88757 22.1968 8.88757V8.88757ZM11.1968 22.0869C5.33034 22.0869 1.66459 25.0194 0.196777 30.8876C2.39609 27.9533 4.96322 26.8537 7.89609 27.5869C9.5705 28.0045 10.7671 29.2183 12.0922 30.5638C14.2489 32.7524 16.7452 35.2862 22.1968 35.2862C28.0632 35.2862 31.729 32.354 33.1968 26.4872C30.9971 29.4198 28.43 30.5194 25.4971 29.7862C23.8231 29.3689 22.6278 28.1548 21.301 26.8093C19.1457 24.6207 16.65 22.0869 11.1968 22.0869Z" fill="#38B2AC"/>
</svg>
