<svg width="39" height="38" viewBox="0 0 39 38" fill="none" xmlns="http://www.w3.org/2000/svg">
<path d="M19.6762 37.7883C30.0874 37.7883 38.5273 29.3483 38.5273 18.9372C38.5273 8.52609 30.0874 0.0861816 19.6762 0.0861816C9.26511 0.0861816 0.825195 8.52609 0.825195 18.9372C0.825195 29.3483 9.26511 37.7883 19.6762 37.7883Z" fill="#34AADF"/>
<path d="M8.90623 18.5244C8.90623 18.5244 18.2441 14.5517 21.4826 13.1529C22.7241 12.5934 26.9342 10.8028 26.9342 10.8028C26.9342 10.8028 28.8773 10.0195 28.7154 11.9219C28.6614 12.7053 28.2296 15.4469 27.7978 18.4125C27.1501 22.609 26.4484 27.1971 26.4484 27.1971C26.4484 27.1971 26.3404 28.484 25.4229 28.7078C24.5053 28.9316 22.9939 27.9245 22.7241 27.7007C22.5081 27.5328 18.6759 25.0149 17.2725 23.7839C16.8946 23.4482 16.4629 22.7768 17.3264 21.9935C19.2696 20.147 21.5905 17.853 22.9939 16.3982C23.6417 15.7267 24.2893 14.16 21.5905 16.0624C17.7583 18.8041 13.98 21.378 13.98 21.378C13.98 21.378 13.1163 21.9375 11.4971 21.4339C9.87774 20.9304 7.98858 20.2589 7.98858 20.2589C7.98858 20.2589 6.69323 19.4196 8.90623 18.5244Z" fill="white"/>
</svg>
