<svg width="37" height="37" viewBox="0 0 37 37" fill="none" xmlns="http://www.w3.org/2000/svg">
<path d="M0.757812 18.0616V35.6398H35.9141V0.483521H0.757812V18.0616ZM29.0881 16.6554C29.9302 16.8508 30.6955 17.2912 31.2875 17.921C31.6134 18.2603 31.8968 18.6381 32.1313 19.046C32.1313 19.091 30.6125 20.1176 29.6872 20.6913C29.6534 20.7138 29.5184 20.5676 29.3694 20.3454C29.2005 20.0539 28.9604 19.81 28.6718 19.6364C28.3831 19.4628 28.0551 19.3651 27.7184 19.3526C26.6525 19.2795 25.9663 19.8391 25.9719 20.7588C25.9631 20.9878 26.0155 21.215 26.1238 21.417C26.3572 21.9035 26.7931 22.1932 28.16 22.7838C30.6772 23.8666 31.7544 24.581 32.4237 25.5963C33.1719 26.7213 33.3378 28.5382 32.8316 29.8826C32.2691 31.3451 30.8909 32.3379 28.9419 32.667C28.0517 32.7689 27.1522 32.7595 26.2644 32.6388C24.9094 32.419 23.6594 31.7738 22.6953 30.7966C22.3719 30.4395 21.7419 29.5085 21.7812 29.441C21.8839 29.3648 21.992 29.2962 22.1047 29.2357L23.3984 28.4932L24.4081 27.9082L24.6191 28.2204C24.9751 28.7296 25.4281 29.1635 25.9522 29.4973C27.0772 30.0879 28.6128 30.0063 29.3722 29.3229C29.6271 29.0725 29.7862 28.7405 29.8217 28.3849C29.8571 28.0293 29.7667 27.6725 29.5663 27.3766C29.285 26.9857 28.7225 26.6566 27.1503 25.9704C25.3362 25.1885 24.5544 24.7048 23.84 23.9341C23.394 23.4256 23.0648 22.8256 22.8753 22.1763C22.734 21.4345 22.7131 20.6748 22.8134 19.9263C23.1875 18.1741 24.5009 16.9507 26.4191 16.5879C27.3074 16.478 28.2072 16.5026 29.0881 16.661V16.6554ZM20.8362 18.1291V19.5691H16.2716V32.5713H13.0344V19.5663H8.45844V18.1601C8.44615 17.676 8.4593 17.1916 8.49781 16.7088C8.51469 16.6863 11.3103 16.6751 14.6853 16.6807H20.8194L20.8362 18.1291Z" fill="#007ACC"/>
</svg>
